<svg version="1.1" id="Layer_1" xmlns="http://www.w3.org/2000/svg" xmlns:xlink="http://www.w3.org/1999/xlink" x="0px" y="0px"
	 viewBox="0 0 368 68" enable-background="new 0 0 368 68" xml:space="preserve">
<g>
	<path fill="#00AEEF" d="M93.71,35.05l2.81-0.28c0.17,0.95,0.51,1.64,1.03,2.08c0.52,0.44,1.21,0.66,2.09,0.66
		c0.93,0,1.63-0.2,2.1-0.59c0.47-0.39,0.71-0.85,0.71-1.38c0-0.34-0.1-0.63-0.3-0.86c-0.2-0.24-0.54-0.45-1.04-0.62
		c-0.34-0.12-1.11-0.33-2.31-0.63c-1.55-0.38-2.64-0.86-3.26-1.42c-0.88-0.79-1.32-1.75-1.32-2.88c0-0.73,0.21-1.41,0.62-2.05
		c0.41-0.63,1.01-1.12,1.79-1.45c0.78-0.33,1.72-0.5,2.82-0.5c1.8,0,3.15,0.39,4.06,1.18c0.91,0.79,1.38,1.84,1.43,3.16l-2.89,0.13
		c-0.12-0.74-0.39-1.27-0.8-1.59c-0.41-0.32-1.02-0.48-1.83-0.48c-0.84,0-1.5,0.17-1.97,0.52c-0.31,0.22-0.46,0.52-0.46,0.89
		c0,0.34,0.14,0.63,0.43,0.87c0.36,0.31,1.25,0.63,2.66,0.96c1.41,0.33,2.45,0.68,3.12,1.03c0.67,0.36,1.2,0.84,1.58,1.46
		c0.38,0.62,0.57,1.38,0.57,2.28c0,0.82-0.23,1.59-0.68,2.3c-0.46,0.72-1.1,1.25-1.93,1.6c-0.83,0.35-1.87,0.52-3.12,0.52
		c-1.81,0-3.2-0.42-4.17-1.25C94.47,37.87,93.89,36.65,93.71,35.05z"/>
	<polygon fill="#00AEEF" points="115.95,39.71 115.95,25.39 126.56,25.39 126.56,27.81 118.84,27.81 118.84,30.99 126.02,30.99 
		126.02,33.4 118.84,33.4 118.84,37.29 126.83,37.29 126.83,39.71 	"/>
	<polygon fill="#00AEEF" points="137.48,39.71 137.48,25.39 140.29,25.39 146.16,34.95 146.16,25.39 148.84,25.39 148.84,39.71 
		145.94,39.71 140.17,30.37 140.17,39.71 	"/>
	<path fill="#00AEEF" d="M160.05,25.39h5.28c1.19,0,2.1,0.09,2.72,0.27c0.84,0.25,1.56,0.69,2.16,1.32c0.6,0.63,1.06,1.4,1.37,2.32
		c0.31,0.92,0.47,2.04,0.47,3.39c0,1.18-0.15,2.19-0.44,3.05c-0.36,1.04-0.87,1.88-1.53,2.53c-0.5,0.49-1.18,0.87-2.03,1.14
		c-0.64,0.2-1.49,0.3-2.56,0.3h-5.44V25.39L160.05,25.39z M162.94,27.81v9.48h2.16c0.81,0,1.39-0.04,1.75-0.14
		c0.47-0.12,0.86-0.31,1.17-0.59c0.31-0.28,0.56-0.74,0.76-1.38c0.19-0.64,0.29-1.52,0.29-2.62c0-1.11-0.1-1.95-0.29-2.55
		c-0.2-0.59-0.47-1.06-0.82-1.39c-0.35-0.33-0.8-0.56-1.34-0.67c-0.4-0.09-1.19-0.14-2.37-0.14H162.94z"/>
	<polygon fill="#0A608D" points="182.69,39.71 182.69,25.39 192.51,25.39 192.51,27.81 185.59,27.81 185.59,31.2 191.56,31.2 
		191.56,33.62 185.59,33.62 185.59,39.71 	"/>
	<path fill="#0A608D" d="M202.47,32.64c0-1.46,0.22-2.68,0.65-3.67c0.33-0.73,0.77-1.38,1.33-1.96c0.56-0.58,1.18-1.01,1.85-1.29
		c0.89-0.38,1.92-0.57,3.09-0.57c2.11,0,3.8,0.65,5.06,1.96c1.27,1.31,1.9,3.13,1.9,5.46c0,2.31-0.63,4.12-1.89,5.43
		c-1.26,1.3-2.94,1.96-5.04,1.96c-2.13,0-3.82-0.65-5.08-1.95C203.1,36.7,202.47,34.91,202.47,32.64L202.47,32.64z M205.45,32.54
		c0,1.62,0.38,2.85,1.12,3.69c0.75,0.84,1.7,1.25,2.85,1.25c1.15,0,2.1-0.41,2.84-1.25c0.74-0.83,1.11-2.07,1.11-3.73
		c0-1.64-0.36-2.86-1.08-3.67c-0.72-0.81-1.68-1.21-2.87-1.21c-1.19,0-2.15,0.41-2.88,1.23C205.82,29.66,205.45,30.89,205.45,32.54z
		"/>
	<path fill="#0A608D" d="M226.79,39.71V25.39h6.09c1.53,0,2.64,0.13,3.33,0.39c0.69,0.26,1.25,0.71,1.67,1.37
		c0.42,0.66,0.62,1.41,0.62,2.26c0,1.07-0.32,1.96-0.95,2.66c-0.63,0.7-1.58,1.14-2.83,1.32c0.63,0.37,1.14,0.77,1.55,1.2
		c0.41,0.44,0.95,1.21,1.64,2.32l1.75,2.79h-3.46l-2.09-3.12c-0.74-1.11-1.25-1.81-1.52-2.1c-0.27-0.29-0.56-0.49-0.87-0.6
		c-0.31-0.11-0.79-0.16-1.46-0.16h-0.58v5.98H226.79L226.79,39.71z M229.68,31.44h2.14c1.39,0,2.25-0.06,2.6-0.17
		c0.34-0.12,0.61-0.32,0.81-0.61c0.19-0.29,0.29-0.64,0.29-1.07c0-0.48-0.13-0.87-0.39-1.17c-0.26-0.3-0.62-0.48-1.09-0.56
		c-0.23-0.03-0.94-0.05-2.11-0.05h-2.25V31.44z"/>
	<polygon fill="#0A608D" points="249.39,39.71 249.39,25.39 260.01,25.39 260.01,27.81 252.28,27.81 252.28,30.99 259.47,30.99 
		259.47,33.4 252.28,33.4 252.28,37.29 260.28,37.29 260.28,39.71 	"/>
	<polygon fill="#0A608D" points="270.93,39.71 270.93,25.39 273.74,25.39 279.6,34.95 279.6,25.39 282.29,25.39 282.29,39.71 
		279.38,39.71 273.61,30.37 273.61,39.71 	"/>
	<path fill="#0A608D" d="M292.78,35.05l2.81-0.28c0.17,0.95,0.51,1.64,1.03,2.08c0.52,0.44,1.21,0.66,2.09,0.66
		c0.93,0,1.63-0.2,2.1-0.59c0.47-0.39,0.71-0.85,0.71-1.38c0-0.34-0.1-0.63-0.3-0.86c-0.2-0.24-0.54-0.45-1.04-0.62
		c-0.34-0.12-1.11-0.33-2.31-0.63c-1.55-0.38-2.64-0.86-3.26-1.42c-0.88-0.79-1.32-1.75-1.32-2.88c0-0.73,0.21-1.41,0.62-2.05
		c0.41-0.63,1.01-1.12,1.79-1.45c0.78-0.33,1.72-0.5,2.82-0.5c1.8,0,3.15,0.39,4.06,1.18c0.91,0.79,1.38,1.84,1.43,3.16l-2.89,0.13
		c-0.12-0.74-0.39-1.27-0.8-1.59c-0.41-0.32-1.02-0.48-1.83-0.48c-0.84,0-1.5,0.17-1.97,0.52c-0.31,0.22-0.46,0.52-0.46,0.89
		c0,0.34,0.14,0.63,0.43,0.87c0.36,0.31,1.25,0.63,2.66,0.96c1.41,0.33,2.45,0.68,3.12,1.03c0.67,0.36,1.2,0.84,1.58,1.46
		c0.38,0.62,0.57,1.38,0.57,2.28c0,0.82-0.23,1.59-0.68,2.3c-0.46,0.72-1.1,1.25-1.93,1.6c-0.83,0.35-1.87,0.52-3.12,0.52
		c-1.81,0-3.2-0.42-4.17-1.25C293.54,37.87,292.96,36.65,292.78,35.05z"/>
	<rect x="314.92" y="25.39" fill="#0A608D" width="2.89" height="14.32"/>
	<path fill="#0A608D" d="M337.9,34.44l2.8,0.89c-0.43,1.56-1.14,2.72-2.14,3.48c-1,0.76-2.27,1.14-3.8,1.14
		c-1.9,0-3.46-0.65-4.69-1.95c-1.22-1.3-1.84-3.08-1.84-5.33c0-2.38,0.62-4.23,1.85-5.55c1.23-1.32,2.85-1.98,4.85-1.98
		c1.75,0,3.17,0.52,4.27,1.55c0.65,0.61,1.14,1.49,1.47,2.64l-2.86,0.68c-0.17-0.74-0.52-1.33-1.06-1.76
		c-0.54-0.43-1.19-0.64-1.96-0.64c-1.06,0-1.92,0.38-2.58,1.14c-0.66,0.76-0.99,1.99-0.99,3.7c0,1.81,0.32,3.1,0.98,3.87
		c0.65,0.77,1.5,1.15,2.54,1.15c0.77,0,1.43-0.24,1.98-0.73C337.26,36.26,337.66,35.49,337.9,34.44z"/>
	<path fill="#0A608D" d="M350.62,35.05l2.81-0.28c0.17,0.95,0.51,1.64,1.03,2.08c0.52,0.44,1.21,0.66,2.09,0.66
		c0.93,0,1.63-0.2,2.1-0.59c0.47-0.39,0.71-0.85,0.71-1.38c0-0.34-0.1-0.63-0.3-0.86c-0.2-0.24-0.54-0.45-1.04-0.62
		c-0.34-0.12-1.11-0.33-2.31-0.63c-1.55-0.38-2.64-0.86-3.26-1.42c-0.88-0.79-1.32-1.75-1.32-2.88c0-0.73,0.21-1.41,0.62-2.05
		c0.41-0.63,1.01-1.12,1.79-1.45c0.78-0.33,1.72-0.5,2.82-0.5c1.8,0,3.15,0.39,4.06,1.18c0.91,0.79,1.38,1.84,1.43,3.16l-2.89,0.13
		c-0.12-0.74-0.39-1.27-0.8-1.59c-0.41-0.32-1.02-0.48-1.83-0.48c-0.84,0-1.5,0.17-1.97,0.52c-0.31,0.22-0.46,0.52-0.46,0.89
		c0,0.34,0.14,0.63,0.43,0.87c0.36,0.31,1.25,0.63,2.66,0.96c1.41,0.33,2.45,0.68,3.12,1.03c0.67,0.36,1.2,0.84,1.58,1.46
		c0.38,0.62,0.57,1.38,0.57,2.28c0,0.82-0.23,1.59-0.68,2.3c-0.46,0.72-1.1,1.25-1.93,1.6c-0.83,0.35-1.87,0.52-3.12,0.52
		c-1.81,0-3.2-0.42-4.17-1.25C351.38,37.87,350.8,36.65,350.62,35.05z"/>
</g>
<g>
	<polygon fill-rule="evenodd" clip-rule="evenodd" fill="#007FB6" points="36.03,34.32 32.15,33.02 32.15,27.9 36.03,29.2 	"/>
	<polygon fill-rule="evenodd" clip-rule="evenodd" fill="#0099D0" points="42.34,35.03 40.24,35.74 38.33,35.1 38.33,29.98 
		40.31,30.65 42.34,29.96 	"/>
	<polygon fill-rule="evenodd" clip-rule="evenodd" fill="#00AFE2" points="49.88,32.5 44.64,34.26 44.64,29.19 49.88,27.41 	"/>
	<rect x="32.15" y="47.43" fill-rule="evenodd" clip-rule="evenodd" fill="#007FB6" width="3.87" height="5.15"/>
	<rect x="38.33" y="47.43" fill-rule="evenodd" clip-rule="evenodd" fill="#0099D0" width="4.01" height="5.15"/>
	<rect x="44.64" y="47.43" fill-rule="evenodd" clip-rule="evenodd" fill="#00AFE2" width="5.24" height="5.15"/>
	<rect x="44.64" y="11.22" fill-rule="evenodd" clip-rule="evenodd" fill="#00AFE2" width="5.24" height="5.15"/>
	<rect x="38.33" y="11.22" fill-rule="evenodd" clip-rule="evenodd" fill="#0099D0" width="4.01" height="5.15"/>
	<rect x="32.15" y="11.22" fill-rule="evenodd" clip-rule="evenodd" fill="#007FB6" width="3.87" height="5.15"/>
	<path fill-rule="evenodd" clip-rule="evenodd" fill="#0A608D" d="M25.27,4.05h4.58v7.17v5.15v10.75v5.13v15.19v5.15v8.48h-4.58
		v-8.48h-8.61c-4.2,0-7.64-3.44-7.64-7.64V18.86c0-4.2,3.44-7.64,7.64-7.64h8.61V4.05L25.27,4.05z M25.27,47.43V30.71l-11.1-3.73
		v17.96c0,1.37,1.12,2.49,2.49,2.49H25.27L25.27,47.43z M25.27,25.58v-9.21h-8.61c-1.37,0-2.49,1.12-2.49,2.49v2.97L25.27,25.58z"/>
	<path fill-rule="evenodd" clip-rule="evenodd" fill="#0A608D" d="M52.15,4.05h4.58v7.17h7.79c4.2,0,7.64,3.44,7.64,7.64v26.08
		c0,4.2-3.44,7.64-7.64,7.64h-7.79v8.48h-4.58V4.05L52.15,4.05z M56.73,16.37v8.73l10.28-3.48v-2.75c0-1.37-1.12-2.49-2.49-2.49
		H56.73L56.73,16.37z M56.73,30.21v17.23h7.79c1.37,0,2.49-1.12,2.49-2.49V26.76L56.73,30.21z"/>
</g>
</svg>
