<svg xmlns="http://www.w3.org/2000/svg" viewBox="204 530 817.5 160" class="animated-logo"><path fill="#231f20" d="M276.24,625.08v10H204V564.88h12v60.2Z"></path><path fill="#231f20" d="M308.34,574.92V595h62.21v10H308.34v20.06h62.21v10H296.3V564.88h74.25v10Z"></path><path fill="#231f20" d="M497.17,635.12h-12v-58.3l-36.72,58.3h-10l-36.72-58.3v58.3h-12V564.88h18.56l35.22,56.29,35.22-56.29h18.56Z"></path><path fill="#231f20" id="main_logo_o_0" d="M516.23,599.9c0-22.38,13.24-36,44.15-36s44.14,13.74,44.14,36-13.34,36.22-44.14,36.22S516.23,622.38,516.23,599.9Zm72.3,13c7.86-17,1.23-27.08-17.57-35.79s-30.77-7.31-38.66,9.74-1.22,27.29,17.49,36S580.64,630,588.53,612.94Z" style="display: block;"></path><path fill="#e43126" id="main_logo_stories_0" transform="translate(440 485) scale(0.2)" d="M556.18,489.85l24.59-142a1.73,1.73,0,0,1,3.38-.11l27.59,115.89a1.73,1.73,0,0,0,3.09.6l48.29-67.8a1.73,1.73,0,0,1,3,1.55l-28.76,86.27a1.72,1.72,0,0,0,2.63,2L790.43,380.43a1.73,1.73,0,0,1,2.35,2.48l-87,110.88a1.73,1.73,0,0,0,1.79,2.74l121.46-31.21a1.73,1.73,0,0,1,1.64,2.91L712.15,584.49a1.73,1.73,0,0,0,.77,2.91l124.43,32.81a1.72,1.72,0,0,1,0,3.34L721.85,652.7a1.73,1.73,0,0,0-.66,3l74.91,60.35a1.73,1.73,0,0,1-1.77,2.93l-58.09-25.3a1.73,1.73,0,0,0-2.11,2.57l63.52,91.51a1.73,1.73,0,0,1-2.34,2.45L704.76,733.5a1.73,1.73,0,0,0-2.62,1.76l17.45,98.15a1.73,1.73,0,0,1-3.11,1.31L644.14,733.45a1.73,1.73,0,0,0-3.1.66l-23.83,118a1.73,1.73,0,0,1-3.21.49l-53.88-97.44a1.73,1.73,0,0,0-2.65-.47l-89.23,77.94a1.73,1.73,0,0,1-2.75-1.93l41.66-107.43a1.73,1.73,0,0,0-2.6-2l-124,86.38a1.73,1.73,0,0,1-2.42-2.39l86.11-127.49a1.73,1.73,0,0,0-1.78-2.66l-74.69,15.72a1.73,1.73,0,0,1-1.11-3.24L477.83,643a1.73,1.73,0,0,0-.08-3.14L362.4,590.13a1.72,1.72,0,0,1,.39-3.28l95.36-16.64a1.73,1.73,0,0,0,.83-3L377.78,497a1.73,1.73,0,0,1,1.63-3l105.18,31.44a1.73,1.73,0,0,0,1.86-2.71L394.32,403.19a1.72,1.72,0,0,1,2.35-2.47l91.08,63.22a1.72,1.72,0,0,0,2.7-1.63l-9.53-75.18a1.73,1.73,0,0,1,3.16-1.17L553,490.5A1.73,1.73,0,0,0,556.18,489.85Z" style="display: none;"></path><path fill="#f4a2c8" id="main_logo_blog_0" transform="translate(440 485) scale(0.2)" d="M571,384.76c-41.88-2.92-83.64,12.14-114.84,40a161.42,161.42,0,0,0-37.66,50.78,214.39,214.39,0,0,0-20.23,72.35,184.82,184.82,0,0,0,6.91,71.61c6.82,22.13,18.67,43.66,36.57,58.74,17.25,14.54,39.49,23.9,62.31,23.25,22.42-.65,43.22-11.37,57.92-28.12A101.61,101.61,0,0,0,579,646.54c3.22-7.48,6.39-15.47,5.83-23.79a34.87,34.87,0,0,0-19.15-29c-12.24-6-25.88-5.43-38.11.27-15.72,7.32-25.73,22.89-32,38.44-2.15,5.34-3.81,10.89-5.64,16.35-1.93,5.76-3.86,11.53-5.67,17.34a221.56,221.56,0,0,0-8.77,38.21,99.57,99.57,0,0,0,1.77,36.77,73.34,73.34,0,0,0,14.4,28.52c11.32,13.9,27.64,23.44,43.93,30.4a266.74,266.74,0,0,0,45.9,14.72,211.79,211.79,0,0,0,66.85,4A230.46,230.46,0,0,0,711,804.15c18.06-7.14,35.35-16.46,49.84-29.53,16.41-14.78,27-34.86,33.52-55.73a204.54,204.54,0,0,0,7.1-32.83c1.49-10.85,1.57-21.52-.93-32.25-3.91-16.76-14-31.9-27-43a102,102,0,0,0-18-12.38A106.06,106.06,0,0,0,736,590.74c-12.21-3.65-25.14-6.9-38-6-12.58.89-25.43,5.24-34.16,14.72a37.44,37.44,0,0,0-9.69,32.08c1.45,8.44,7,15.49,14,20.19,14.07,9.51,33.93,8.69,48.71,1.47a47.41,47.41,0,0,0,11.09-7.92,170,170,0,0,0,12.77-13c7-8,13.47-16.8,17.94-26.53a76.61,76.61,0,0,0,5.55-48.88c-3-13.74-9.46-26.47-15.83-38.88-1.66-3.25-3.19-6.6-5.1-9.71a59.17,59.17,0,0,0-9.88-12.19c-8.19-7.66-18.49-13-29.81-13.7A36.25,36.25,0,0,0,674,495.69c-7.61,9.4-9.84,21.39-4.53,32.47a30.78,30.78,0,0,0,12.13,12.62,29.14,29.14,0,0,0,21.63,2.88c10.41-2.48,19.85-9.95,26.41-18.22,24.54-30.94,18.36-77.88-6.86-106.5-14.23-16.15-34.31-26.81-54.82-32.6-20.87-5.9-43.13-7.28-64.67-5.39-12.51,1.1-25.75,3.61-34.45,13.54-8.56,9.75-12.82,23.25-15.07,35.82-.81,4.52-1.5,9.07-1,13.66a38.93,38.93,0,0,0,3.58,13.08,36.3,36.3,0,0,0,14.56,15.4c12.4,7.23,29.13,7.89,41.48.18a36.85,36.85,0,0,0,14.94-18.79c2-5.23,2.67-11.06,2.94-16.6a57.59,57.59,0,0,0-2.08-18.93,40.22,40.22,0,0,0-22.45-25.54c-10.94-4.9-22.9-7.12-34.8-8-4.8-.36-9.38,4.47-9.17,9.17.23,5.28,4,8.79,9.17,9.17,1.55.12,3.1.25,4.64.42.38,0,2.93.32.54,0,.73.09,1.45.21,2.17.33,2.59.43,5.17,1,7.73,1.58,2.27.54,4.53,1.14,6.75,1.85,1,.32,2,.66,3,1a11.73,11.73,0,0,1,1.76.7c-2.28-1.32.15.11.66.36.92.46,1.83.94,2.72,1.47s2.69,1.27,3.07,2l-.88-.68c.31.25.63.52.94.79.46.4.91.82,1.34,1.25s.58.59.86.89.56.62.82.94c.61.74.53.64-.22-.31.88.63,1.6,2.45,2.1,3.39.21.4.39.8.6,1.19,1.05,2-.6-1.86.12.27a56.43,56.43,0,0,1,2,7.79c.43,2.28-.14-2.06,0,.25,0,.67.12,1.34.17,2,.07,1.15.11,2.31.11,3.46,0,1.54,0,3.07-.16,4.6-.06.77-.14,1.53-.22,2.29-.13,1.07-.12,1,0-.17,0,.38-.12.76-.18,1.14a40.17,40.17,0,0,1-1.38,5.73c-.22.67-.5,1.32-.73,2,1.12-3.17,0-.08-.47.73-.31.57-.64,1.13-1,1.68-.2.32-.43.64-.64,1-.52.78-1.31,1.07.53-.64-1.07,1-1.93,2.21-3,3.19-.27.24-.56.46-.82.7-1.11,1,1.76-1.26.86-.67-.55.37-1.07.76-1.62,1.1s-1.22.73-1.85,1.06c-.89.46-3.22,1.06-.06.11-1.24.37-2.42.89-3.68,1.21-.69.18-1.38.33-2.08.46-.34.06-.71.09-1.05.17,2.9-.68,1.89-.22,1-.15a39.84,39.84,0,0,1-4.09.16c-.65,0-1.31-.06-2-.11l-1.06-.11c-1.51-.13,2.78.49.66.08-1.29-.26-2.56-.52-3.83-.89-.57-.17-1.14-.35-1.7-.55l-1-.38c-1.4-.48,2.46,1.15.54.24a38,38,0,0,1-3.45-1.84c-.56-.34-1.1-.7-1.63-1.08-.24-.17-.47-.36-.72-.52,2.62,1.73,1.1.86.48.33a26.74,26.74,0,0,1-2.79-2.74c-.24-.26-.46-.55-.69-.81-1-1.14,1.42,2,.56.72-.41-.59-.83-1.17-1.2-1.79s-.73-1.25-1.06-1.9c-.53-1.07-.6-2.52,0,.18-.34-1.47-1-2.87-1.31-4.36-.08-.38-.14-.77-.22-1.16-.35-1.61.21,2.52.11.86,0-.82-.14-1.63-.16-2.46s0-1.41,0-2.12c0-.44,0-.88.08-1.31.07-.84.63-2.8-.07.2.65-2.79,1-5.66,1.62-8.45q1.07-4.57,2.57-9c.41-1.2.83-2.39,1.28-3.57a15,15,0,0,1,.74-1.86c-1.15,2.12-.07.18.14-.26a54.21,54.21,0,0,1,3.92-6.92c1.2-1.87-1.32,1.41.16-.23.45-.49.86-1,1.32-1.47a11.61,11.61,0,0,1,2.43-2.22c-2,1.11-.1.13.3-.13.56-.36,1.13-.7,1.71-1s1-.52,1.48-.75c2.15-1-1.21.33.56-.24a64.7,64.7,0,0,1,7.13-1.94c.67-.13,1.34-.24,2-.35.51-.08,2.7-.62.25-.06a30.39,30.39,0,0,1,4-.43q7.65-.71,15.34-.81,7.39-.1,14.79.35c2.35.16,4.7.35,7.05.6,1.28.13,2.56.29,3.83.44.67.08,1.46-.13-.53-.07a14.7,14.7,0,0,1,2.54.38,139.89,139.89,0,0,1,28.52,7.45,21.69,21.69,0,0,1,3.21,1.28c-2.12-1.22-.42-.17.11.06l1.71.77c2.27,1.05,4.51,2.17,6.7,3.36A103,103,0,0,1,698,420.88c.48.36,2.17,1.23.13.09a10.18,10.18,0,0,1,1.22,1q1.33,1.1,2.64,2.22,2.85,2.49,5.49,5.21,2.06,2.1,3.91,4.37c.33.4.64.88,1,1.25-1.77-1.76-.57-.74-.14-.16.64.86,1.26,1.73,1.86,2.62a80.39,80.39,0,0,1,6.32,11.23c.33.72,1.24,3.52.37.77.32,1,.81,2,1.18,3q1.13,3,2,6.15c.54,1.9,1,3.82,1.42,5.75.21,1,.39,1.94.56,2.91.08.44.15.88.22,1.32.12.73.18,3.19,0,.22.18,4.09.72,8.09.6,12.21q-.08,2.89-.38,5.77c-.05.52-.14,1-.18,1.56.18-2.84.15-1.05,0-.37-.16,1-.34,2-.55,3.07-.82,4.11-2.32,7.85-3.55,11.82.86-2.77,0-.14-.3.61-.44.92-.9,1.84-1.38,2.73a55.53,55.53,0,0,1-3.17,5.23c-.48.69-1.06,1.35-1.49,2.07,1.32-2.2.62-.81.17-.25-.33.4-.66.79-1,1.18a50.65,50.65,0,0,1-4.34,4.45c-.77.71-1.59,1.38-2.39,2.06-1.2,1,.58-.4.6-.45-.18.39-1.29,1-1.65,1.2-1.13.78-2.3,1.51-3.51,2.18-.6.33-1.23.62-1.83.94-1.66.89,1.61-.49-.32.16a35.32,35.32,0,0,1-3.89,1.14l-.66.13c-1,.17-.88.15.46-.06a9.26,9.26,0,0,0-1.33.07c-.3,0-1.8.17-2,0l1.1.17c-.45-.07-.89-.15-1.33-.25-.68-.16-1.33-.38-2-.58-1-.37-.88-.34.21.09-.33-.16-.66-.34-1-.52-.51-.29-1-.59-1.49-.92l-.5-.35c-.8-.58-.66-.46.43.35a25.77,25.77,0,0,1-2.49-2.34,4.48,4.48,0,0,0-.71-.83l.77,1-.61-.87c-.28-.44-.55-.89-.8-1.35-.17-.3-.32-.6-.47-.91-.4-.88-.3-.62.32.79a22,22,0,0,0-.74-2.4c-.11-.48-.15-1-.28-1.47.68,2.49.18,1.36.14.46s0-1.66.07-2.49c.09-1.88-.5,2.27,0,.44.17-.67.3-1.34.5-2a8.37,8.37,0,0,0,.51-1.48c-.1,1.61-.74,1.5-.19.49s.93-1.77,1.48-2.61c.22-.33.9-1,1-1.38l-.72,1c.25-.3.5-.59.76-.88a30.69,30.69,0,0,1,2.58-2.52l.48-.4c.78-.63.65-.54-.37.28.11-.31,1.23-.86,1.51-1a29.11,29.11,0,0,1,2.56-1.45l.52-.25q1.35-.61-.63.24c.35.05,1.22-.45,1.58-.56,1-.34,2.11-.56,3.18-.81,1.93-.45-2.27.16-.3,0,.54,0,1.07-.09,1.61-.11a26.4,26.4,0,0,1,2.95.05,10.11,10.11,0,0,0,1.34.12c-2.33.15-1.27-.18-.31,0a31.16,31.16,0,0,1,3.69.94,16.18,16.18,0,0,0,2.6.93l-1.17-.49,1,.46c.51.24,1,.49,1.51.76.83.44,1.65.91,2.45,1.4.54.33,2.8,2.35,3.32,2.26l-1-.73c.31.24.61.49.9.73l.89.75c.87.77,1.72,1.56,2.55,2.39s1.48,1.54,2.19,2.34l.94,1.11c.25.3.49.6.73.91-.83-1.09-1-1.25-.37-.47a83.69,83.69,0,0,1,5.77,10c2.82,5.55,5.72,11.06,8.34,16.71.62,1.35,1.23,2.71,1.83,4.07.92,2.11-.83-2,0,.06.36.89.72,1.77,1.06,2.66,1.14,2.92,2.16,5.9,3,8.92a81.58,81.58,0,0,1,2.06,9.27l.18,1.23c-.5-3.14-.2-1.49-.11-.78s.15,1.39.2,2.09c.15,1.69.22,3.39.23,5.09s-.06,3.47-.2,5.2c0,.73-.13,1.47-.21,2.2s-.47,2.34.09-.66c-.11.59-.18,1.19-.28,1.78a66.06,66.06,0,0,1-2.78,10.55c-.28.79-.58,1.57-.88,2.35-.23.59-1.05,2.22.14-.29-.22.47-.41,1-.63,1.43q-1.34,3-2.91,5.82a99.65,99.65,0,0,1-7.48,11.53c-.27.37-1.5,2.19-.13.2-.37.54-.83,1-1.24,1.56q-1.07,1.32-2.16,2.61-2.91,3.4-6,6.64t-6.33,6.26c-1,.93-2,1.86-3,2.77-.33.29-.65.58-1,.86-1.8,1.49,1.4-1,.12-.09a41.46,41.46,0,0,1-4.11,2.56q-1,.53-2,1c-.66.3-2.15.7.56-.22-.56.19-1.11.43-1.67.63a43,43,0,0,1-4.71,1.38c-.88.2-1.76.38-2.64.53l-.88.13c3.13-.63,1-.13.21-.05a46.74,46.74,0,0,1-4.88.21c-.89,0-1.77-.05-2.65-.12s-4-.63-.6,0c-1.62-.3-3.23-.56-4.83-1-.74-.21-1.48-.43-2.21-.68l-1.17-.43c-2.14-.81,1.65.83.29.12s-2.63-1.32-3.88-2.13c-.27-.18-.54-.38-.82-.56-.74-.5-.77-1.08.76.61-.6-.66-1.41-1.18-2-1.81-.46-.46-.88-.94-1.31-1.42-.75-.82-.33-1.25.47.64a7.36,7.36,0,0,0-.66-1,21.26,21.26,0,0,1-1.08-1.85c-.15-.29-.28-.59-.43-.88-.68-1.31.83,2.48.17.35-.23-.78-.49-1.55-.67-2.35s-.23-3.26-.1-.06c0-.88-.16-1.76-.17-2.65a22.76,22.76,0,0,0,.15-3.05l-.18,1.25q.09-.58.21-1.17c.11-.57.24-1.15.4-1.72.24-.91.74-1.86.9-2.78-.37,2.07-.4.9,0,.06.25-.53.52-1,.81-1.55.14-.25,1.89-2.93,1.89-2.93l-.72.93c.24-.31.49-.61.74-.91s.77-.88,1.18-1.3c.82-.86,1.71-1.63,2.58-2.43s-.41.07-.46.33c.05-.27,1.22-.89,1.45-1a36.29,36.29,0,0,1,3.6-2.14l1.08-.54c.46-.22,2.07-1.25.2-.11a18.22,18.22,0,0,1,4.41-1.5c1.22-.35,2.45-.65,3.69-.91.74-.15,1.48-.27,2.22-.4l-.21,0,1.48-.15a60.51,60.51,0,0,1,8.19-.11c1.5.08,3,.24,4.47.38.43,0,1.82.16-.2,0,1,.11,2,.3,3,.47a154.21,154.21,0,0,1,17,4.16c3.5,1,7,2,10.43,3.33.53.21,1.06.44,1.59.64-3.37-1.3-.88-.36-.09,0,1.27.58,2.53,1.19,3.77,1.83,2.61,1.34,5.15,2.82,7.61,4.41,1.27.82,2.51,1.67,3.74,2.55.68.49,1.35,1,2,1.51-2.67-1.93-.11-.08.51.43a87.06,87.06,0,0,1,7.56,6.94q1.85,1.92,3.56,4c.56.66,1.09,1.33,1.63,2,1.13,1.41-1.34-1.82-.28-.36.38.52.76,1,1.12,1.54a70.33,70.33,0,0,1,5.76,9.62c.37.74.73,1.5,1.07,2.26.27.6.79,2.28-.13-.34.17.48.39.94.57,1.42.75,1.93,1.41,3.9,2,5.89s1,3.79,1.36,5.72c.2,1.07.28,2.19.54,3.25-.58-2.44-.17-1.23-.09-.51s.14,1.31.2,2a74.75,74.75,0,0,1-.14,13.71c-.06.63-.14,1.26-.21,1.89-.24,2.23.31-2.1,0,.21-.2,1.35-.39,2.7-.6,4q-.63,4.05-1.42,8.09-1.5,7.77-3.63,15.4a157.46,157.46,0,0,1-5,15c-.25.64-.51,1.27-.76,1.91-.86,2.18.81-1.81-.14.33-.46,1-.91,2.08-1.39,3.11q-1.71,3.71-3.66,7.29a120.19,120.19,0,0,1-8.39,13.09c-1.36,1.87,1.24-1.51-.22.28-.42.53-.84,1.06-1.27,1.58-.73.88-1.47,1.74-2.23,2.59-1.27,1.41-2.57,2.78-3.92,4.1a105.33,105.33,0,0,1-8.55,7.53c-.49.39-2,1.37.23-.17-.28.19-.55.42-.82.62-.84.63-1.68,1.25-2.53,1.86-1.74,1.24-3.5,2.43-5.3,3.59a167.35,167.35,0,0,1-23.26,12.42l-1.36.59-.54.24c-.92.38-.74.31.54-.23-.23.5-2.79,1.14-3.35,1.36-2.26.89-4.54,1.75-6.84,2.56q-6.75,2.4-13.65,4.33a228.71,228.71,0,0,1-28.94,6.13c-.65.09-1.3.2-2,.27,2.62-.28.34,0-.16,0-1.19.15-2.39.29-3.59.42-2.73.3-5.47.54-8.21.74-5.07.36-10.16.55-15.24.55s-10.21-.16-15.29-.53q-3.66-.26-7.3-.66c-1.3-.14-2.68-.2-4-.47,2.27.48.74.1.13,0s-1.53-.22-2.3-.34a221,221,0,0,1-24.39-5.38c-6.82-1.85-13.59-3.92-20.26-6.3q-2.62-.93-5.22-1.94c-1-.37-1.93-.75-2.88-1.13-.67-.27-4-1.77-1.18-.47-3.77-1.76-7.57-3.38-11.26-5.29s-7.33-4-10.84-6.27q-2.44-1.59-4.8-3.3l-1.27-.94c-1.21-.89.5.38.6.47-.91-.8-1.92-1.52-2.85-2.31a76.67,76.67,0,0,1-8.48-8.33c-.67-.77-1.26-1.63-2-2.37,2,2.12,0,0-.4-.59a59,59,0,0,1-3.28-5.15c-.5-.89-1-1.79-1.43-2.71q-.35-.69-.66-1.38c-.06-.12-.75-1.67-.25-.53.57,1.3-.36-.92-.37-.95-.27-.69-.52-1.37-.77-2.06q-.84-2.4-1.51-4.85a77.84,77.84,0,0,1-1.68-7.71c0-.09-.37-2.42-.15-.9s-.09-.81-.1-.91c-.18-1.66-.31-3.32-.39-5a103.44,103.44,0,0,1,.58-16.6c.08-.72.13-1.46.26-2.18-.42,2.38,0-.07.08-.47.18-1.22.38-2.44.59-3.65.52-2.94,1.13-5.86,1.79-8.77,2.67-11.59,6.35-22.92,10.12-34.2,1.77-5.31,3.46-10.66,5.33-15.94.34-1,.7-1.92,1.07-2.88.21-.56.44-1.11.66-1.67.77-2-.87,1.93,0,0s1.86-4.06,2.92-6q1.35-2.52,2.89-4.94c.53-.84,1.08-1.66,1.65-2.47.44-.63,2.63-3.25.55-.83a70.81,70.81,0,0,1,6.92-7.36c.6-.52,1.33-1,1.88-1.57-1.76,1.86-1.31,1-.59.47l1-.68a42.93,42.93,0,0,1,3.87-2.4c.54-.29,1.08-.57,1.63-.84.84-.41,3.34-1.17.1-.1,1.32-.44,2.59-1,3.93-1.37a35.74,35.74,0,0,1,3.58-.82c2.55-.45-2.22.19-.18,0,.64,0,1.27-.12,1.92-.15a33.09,33.09,0,0,1,3.45,0c.62,0,1.23.11,1.84.15,1.46.12-2.66-.42-1.22-.16l.9.14c1.08.2,2.15.45,3.2.75.57.17,1.13.35,1.69.55.28.09.55.2.82.3,1.71.63-1.73-.79-1-.42a44.7,44.7,0,0,1,5.79,3.39c-3.07-2.11-.12,0,.7.76s1.5,1.64,2.23,2.48c-2.46-2.83-.12-.07.45.89.29.48.55,1,.8,1.47.43.85,1,2.92-.11-.41.33,1,.71,1.94,1,2.94.14.56.27,1.12.37,1.68.45,2.38-.2-2.36,0-.42a33,33,0,0,1,.12,3.44c0,.57-.07,1.13-.11,1.7-.06.8-.45,2,.18-1.19-.09.42-.13.85-.21,1.27a61.87,61.87,0,0,1-3.45,10.68c-.78,2,.86-1.9,0,.08l-.5,1.13c-.51,1.12-1,2.24-1.58,3.35-1.1,2.21-2.29,4.38-3.55,6.5q-1.74,2.92-3.69,5.7a18,18,0,0,1-2.18,3c1.54-1.41.55-.71.11-.16s-.91,1.12-1.37,1.66a84.75,84.75,0,0,1-9.89,10l-1.41,1.17-.47.38c-.78.61-.64.5.42-.32a13.18,13.18,0,0,1-2.95,2.14c-2,1.37-4.07,2.64-6.19,3.81-.89.48-1.78,1-2.69,1.4s-2.33,1.47-3.3,1.52l1.07-.46c-.37.16-.75.31-1.13.45l-1.14.43c-1.33.49-2.69.94-4.05,1.34a66.42,66.42,0,0,1-6.8,1.6l-1.88.31c-2.19.37,2.14-.19-.07,0-1.26.11-2.52.25-3.78.32-2.31.13-4.64.14-6.95,0-1.27,0-2.53-.14-3.79-.25-.63-.06-1.26-.14-1.89-.21-1.89-.2,2,.34-.07,0A89.45,89.45,0,0,1,478.68,679c-1.11-.39-2.21-.8-3.31-1.23-.52-.21-2.5-.71-.18-.06a14.5,14.5,0,0,1-1.76-.78c-2.34-1.08-4.64-2.25-6.88-3.52-2.06-1.16-4.07-2.41-6-3.73-.89-.6-1.77-1.22-2.64-1.85a14.89,14.89,0,0,1-1.55-1.16c1.84,1.74-.26-.22-.67-.56a92.18,92.18,0,0,1-10.81-10.47c-.9-1-1.77-2-2.63-3.1l-1.06-1.32c-.88-1.1,1.31,1.77,0,0-1.6-2.19-3.17-4.39-4.63-6.67a120.87,120.87,0,0,1-7.82-14.25c-.47-1-.93-2.07-1.39-3.1-.95-2.13.73,1.85-.14-.32-.25-.63-.51-1.26-.76-1.9q-1.5-3.81-2.77-7.71c-1.64-5-3-10-4.15-15.18q-.81-3.68-1.45-7.38-.36-2-.66-4.05c-.09-.56-.16-1.12-.25-1.69s-.06-.45.1.75l-.18-1.4q-1-8.41-1.28-16.89-.25-8.82.32-17.64.25-4,.69-8c.13-1.22.28-2.44.43-3.66.29-2.48-.31,2,.06-.47.14-1,.28-1.94.44-2.91a199.67,199.67,0,0,1,8.07-32.85q1.29-3.84,2.73-7.63c.53-1.37,1.07-2.75,1.62-4.11.28-.68.55-1.37.85-2-.86,2,0-.08.23-.52q3.5-8,7.65-15.69,3.39-6.24,7.36-12.12,1.88-2.79,3.89-5.49l1.1-1.47c1.28-1.71-1.29,1.6.06-.07.76-.95,1.51-1.9,2.29-2.84A149.9,149.9,0,0,1,473.41,434c.85-.7,1.71-1.39,2.57-2.08l.47-.37-.43.33a7.74,7.74,0,0,1,1.44-1.08q2.88-2.16,5.87-4.17,5.71-3.84,11.77-7.15c4-2.21,8.17-4.19,12.38-6,1.94-.86-2,.79,0,0l1.67-.67c.93-.37,1.86-.74,2.79-1.09q3.38-1.26,6.81-2.36,6.59-2.11,13.36-3.59c2.16-.47,4.33-.9,6.52-1.27,1-.17,2-.33,3-.48a9.09,9.09,0,0,0,1.8-.26l-1.24.17,1.2-.15A145.88,145.88,0,0,1,571,403.1c4.8.34,9.38-4.45,9.17-9.17C579.89,388.67,576.09,385.11,571,384.76Z" style="display: none;"></path><path fill="#50bc9c" id="main_logo_mission_0" transform="translate(440 485) scale(0.2)" d="M528.34,453.43c32.11,24.48,61.67,52,95.79,71.61S682,535.4,707.25,504.1c3-3.75,7.63-6.24,17.14-13.78-3.56,29.4-17.25,46.1-36.39,51-20.64,5.24-44.87,6-65.27.43-39.69-10.86-96.56-66.54-116.5-107.42,3.91-1.9,7.68-4.14,11.73-5.62,31.23-11.4,64.47-19,93.33-34.72,52.58-28.59,104.17-13.5,117.6,38.94,1,4,.14,8.43.14,20-8.18-9.82-12.89-13.76-15.44-18.8-21.21-41.76-48.66-50.41-89.3-28.85C595.63,420.43,566.32,434.41,528.34,453.43Z" style="display: none;"></path><path fill="#50bc9c" id="main_logo_mission_1" transform="translate(440 485) scale(0.2)" d="M705.51,751.43c-36.43-25.3-36-67-3.48-98.12,44-42,100.51-50.11,160.24-58.31-.74,8.27-.81,12.51-1.52,16.63-5.69,32.84-15.48,65.55-16.43,98.52-1.79,62.12-40.8,97.29-95.43,80.59-2.48-.76-4.51-3-13.44-9.11,13.14-1.63,20.08-3.47,26.92-3.18,43,1.8,64.93-17.91,66.24-61.1.52-16.84-1.88-33.89-.14-50.55s7-32.76,11.71-53.55c-48.32,8.54-93.5,18.11-128.8,52.46-19.48,19-23.7,41.92-12.31,67.27C701.73,738.9,703.39,745.27,705.51,751.43Z" style="display: none;"></path><path fill="#50bc9c" id="main_logo_mission_2" transform="translate(440 485) scale(0.2)" d="M547.27,820.32c-38-27.27-72.54-51.93-106.95-76.73-44.56-32.12-45-83,6.17-123.23-4.5,13.55-5.31,20.68-8.87,26-24.32,36.13-18.92,65.5,16.57,88.45,28.78,18.62,57.33,37.61,92.24,60.54,5.7-37.2,15.52-75.11,16.31-113.21,1-45.76-28.75-68.29-77-68.5q2-5.72,4.1-11.43c13.09.92,26.93-.54,39.13,3.26,26.68,8.29,41.43,29.37,46.53,55.71C586.79,719.22,568.56,771.86,547.27,820.32Z" style="display: none;"></path><path fill="#50bc9c" id="main_logo_mission_3" transform="translate(440 485) scale(0.2)" d="M587.42,799.62c10.29-1.49,20.54-3.74,30.88-4.36,61.85-3.71,110-27.31,135.57-87.87,6-14.22,17.68-26.32,28-38.31,3.71-4.31,11.14-5.4,23.66-11C779,698.54,760.43,734.41,734.79,764.2c-38,44.22-91.64,47.25-144.85,46Z" style="display: none;"></path><path fill="#50bc9c" id="main_logo_mission_4" transform="translate(440 485) scale(0.2)" d="M821.59,573c-5.79-5.4-11.3-8.64-14.11-13.46C770.25,496,717.67,463.6,641.69,473.07c-15.59,1.94-32.35-5.54-48.58-8.67.3-3.06.61-6.11.91-9.17,3.79-1,7.66-3,11.37-2.77,23.24,1.57,46.45,5.32,69.67,5.24,63.2-.21,130.74,46,149.85,104.56C825.57,564.29,823.47,567.22,821.59,573Z" style="display: none;"></path><path fill="#50bc9c" id="main_logo_mission_5" transform="translate(440 485) scale(0.2)" d="M514.77,737c-17-32.94-35.8-65.06-50.43-99-19.89-46.14,1.19-129.15,39.9-156.53-1.67,8.67-1.33,15.14-4.06,19.84-37.3,64.19-37.95,125.9,8.21,187,9.38,12.42,10.82,30.85,15.92,46.51Z" style="display: none;"></path><path fill="#f27022" id="main_logo_people_0" transform="translate(440 485) scale(0.2)" d="M657.83,693.49a86.75,86.75,0,0,1,6.52-9.72l-2,2.53c10.85-14,25.11-24.82,38.91-35.72,14.07-11.11,28-22.57,38.08-37.63a81.66,81.66,0,0,0,7.54-14.71,58.37,58.37,0,0,0,3.66-13.48,13.92,13.92,0,0,0-1.26-9.63,12.91,12.91,0,0,0-7.47-5.74,537.37,537.37,0,0,0-69.21-13.57q-16.67-2.19-33.44-3.29c-10.4-.68-21.11-1-31.25,1.85A44,44,0,0,0,582,573.67c-4.8,7.94-6.7,17.5-6.67,26.69A98.42,98.42,0,0,0,579.59,627c1.15,4,2.49,7.84,4,11.68,1.07,2.77,2.22,5.5,3.38,8.23a12.66,12.66,0,0,0,8.14,7.29,29,29,0,0,0,4.58.6l1.62.15c10.44.76,20.8-1.87,30.2-6.26a61.69,61.69,0,0,0,23.36-19.85,44.37,44.37,0,0,0,3.27-5.19,13.12,13.12,0,0,0,1.26-9.64,12.49,12.49,0,0,0-22.84-3,47.21,47.21,0,0,1-3.93,6.06l1.95-2.53a49,49,0,0,1-8.66,8.67l2.53-2a51.47,51.47,0,0,1-11.21,6.57l3-1.26a50.4,50.4,0,0,1-12.86,3.53l3.32-.44a46.85,46.85,0,0,1-11.89,0l3.32.45-.36,0,7.48,5.74c-.27-.61-.54-1.23-.8-1.85l1.26,3c-4.21-10-7.67-20.43-9.13-31.2l.44,3.32a61,61,0,0,1-.22-15.51l-.44,3.32a38.44,38.44,0,0,1,2.49-9.54l-1.26,3a31.6,31.6,0,0,1,4-6.82l-2,2.53a30.67,30.67,0,0,1,5.4-5.34l-2.53,1.95a32,32,0,0,1,6.7-3.88l-3,1.26a43.28,43.28,0,0,1,10.68-2.82l-3.33.44c8.79-1.17,17.72-.45,26.52.21Q659.1,579,674.08,581l-3.32-.45q25.41,3.44,50.38,9.37,7.07,1.68,14.07,3.56l-8.73-15.37a59.39,59.39,0,0,1-4,14.27l1.26-3a71,71,0,0,1-9.19,15.43l2-2.53c-8.66,11.16-19.74,20.18-30.75,28.91-11.4,9-23.09,17.85-33.2,28.37a111.23,111.23,0,0,0-16.31,21.28A13,13,0,0,0,635,690.5a12.5,12.5,0,0,0,15.38,8.73,13,13,0,0,0,7.47-5.74Z" style="display: none;"></path><path fill="#f27022" id="main_logo_people_1" transform="translate(440 485) scale(0.2)" d="M640,394.15c-.25.35-.57.71-.8,1.08.08-.12,2-2.45.71-1-.51.58-1,1.17-1.52,1.74a47.44,47.44,0,0,1-3.74,3.63c-.57.5-1.2.94-1.74,1.45,2.76-2.61.82-.64-.06,0-1.42,1-2.89,1.9-4.39,2.74q-2,1.13-4.06,2.08c-.87.41-3.83,1.45,0,.06-.83.3-1.64.65-2.47,1a86.94,86.94,0,0,1-10,3c-3.47.82-7,1.44-10.51,2-2.17.33,3.23-.4.21,0l-2.43.28c-1.85.2-3.71.38-5.57.52-7.16.57-14.33.73-21.5.92-29.75.75-61,2.73-88.78,14.27C468.65,433.87,455,442,444.05,453.63c-12.15,12.84-19.55,28.91-29.94,43a7.35,7.35,0,0,1-1,1.34c.18-.13,1.83-2.29.41-.56-.55.68-1.11,1.37-1.67,2-1.13,1.32-2.28,2.61-3.47,3.88-2.33,2.51-4.77,4.92-7.25,7.28-5,4.71-10.11,9.22-15.13,13.87-10.85,10-20.9,21-26.62,34.78a53.21,53.21,0,0,0,.19,40.23c5.34,12.88,14.08,23.51,23.21,33.91,4.1,4.67,8.26,9.3,12.17,14.14.49.62,1.07,1.24,1.5,1.9.14.21-1.81-2.4-1-1.34.24.33.49.64.73,1,1,1.27,1.89,2.57,2.79,3.88a80.73,80.73,0,0,1,4.75,7.8c.63,1.21,1.2,2.44,1.79,3.66.82,1.74-.59-1.41-.58-1.38a5.75,5.75,0,0,1,.44,1.07c.27.72.54,1.45.79,2.18.46,1.38.87,2.78,1.21,4.19.16.66.31,1.33.44,2a7.28,7.28,0,0,1,.32,1.81l-.2-1.52c.06.46.11.91.15,1.36.91,9.31-.35,18.67.35,28a78.57,78.57,0,0,0,15.5,41.69,114.84,114.84,0,0,0,34.26,30A152.66,152.66,0,0,0,499.26,790c17.92,4.23,36.55,5.59,54.89,6.73,9.11.57,18.23,1,27.34,1.73,4.61.35,9.22.75,13.81,1.25,2.21.23,4.44.66,6.65.78-.32,0-2.94-.41-.67-.08l1.32.19c1.33.19,2.65.39,4,.61a192.54,192.54,0,0,1,26.49,6.21,103.73,103.73,0,0,0,13.53,3.6,52.79,52.79,0,0,0,17.24.27c15.79-2.36,28.23-14.73,36-27.94s11.17-28.18,15.2-42.92c1-3.55,2-7.08,3.19-10.56q.87-2.58,1.87-5.11c1.1-2.8-.9,2,0,0,.43-1,.88-2,1.34-2.92a65.23,65.23,0,0,1,5.61-9.37c1.25-1.74-1.73,2.11,0,0,.53-.63,1.08-1.25,1.64-1.85a53.52,53.52,0,0,1,4.18-3.93c1.56-1.35-.6.52-.8.59a7.4,7.4,0,0,0,1.18-.85c.7-.49,1.41-1,2.13-1.4a56.75,56.75,0,0,1,5.07-2.8c.76-.38,1.53-.73,2.3-1.08,1.89-.86-.78.36-1,.4a10.69,10.69,0,0,0,1.36-.54c1.83-.71,3.68-1.36,5.55-2,7.21-2.36,14.61-4.13,21.85-6.45,7.84-2.51,15.64-5.66,22.54-10.18a88,88,0,0,0,18.17-15.84c10.21-11.78,17.74-25.36,24.07-39.53,7.19-16.09,14.1-32.61,19.37-49.42,5.6-17.86,8.22-36.27,5.54-54.86-2.32-16.11-9.63-32.25-21.81-43.29-13-11.83-29.71-17.36-47-18.7-35.71-2.76-67.52,15.19-101.26,23.3-4.59,1.11-9.22,1.92-13.87,2.68-1.78.29,2.37-.29.57-.07l-1.37.17c-1.22.14-2.45.28-3.67.4-2.45.23-4.9.42-7.36.55a221.16,221.16,0,0,1-28.2-.36c-4.8-.35-9.59-.83-14.37-1.39l-3.24-.4c-.45-.06-2.48-.34-.65-.08s.12,0-.19,0q-3.71-.52-7.4-1.08c-9.54-1.47-19-3.2-28.53-5-10.46-1.94-21.56-4.15-32-.64-9.25,3.12-16.75,9.22-23.55,16.05-12.19,12.25-24,25.39-33.1,40.11-8.94,14.4-15.65,31.71-14.15,48.94a71.07,71.07,0,0,0,8.51,27.77c4,7.42,8.77,14.33,12.74,21.75,7.78,14.58,13.45,30.15,20.33,45.15,6.74,14.68,15,29.68,26.92,40.79,10.83,10.06,24.56,17.84,39.11,20.86s30.92,2,43.48-6.82a57.37,57.37,0,0,0,17.1-19.09c3.86-6.8,6.71-14.12,10.56-20.92,3.22-5.7,1.54-13.92-4.49-17.11s-13.66-1.59-17.1,4.49c-3.85,6.81-6.7,14.12-10.56,20.92-.89,1.57-1.83,3.11-2.85,4.59a10.76,10.76,0,0,0-.9,1.26s1.66-2,.78-1-1.49,1.78-2.3,2.62c-1,1-2.1,2-3.2,3-1.55,1.34,2.47-1.67.34-.3-.67.43-1.32.89-2,1.31-1,.58-2.79,2-3.95,2-.28,0,2.88-1.1,1.63-.69-.38.12-.74.28-1.11.42-.74.26-1.49.51-2.24.73a40,40,0,0,1-4.33,1c-.29,0-.59.08-.88.15-1.32.31,2.11-.41,1.85-.25a8.64,8.64,0,0,1-2.7.24c-1.41.08-2.83.09-4.25,0-.71,0-1.43-.06-2.14-.11s-3.91-.43-1.42-.09-.21-.05-.81-.15l-2.16-.42c-1.56-.33-3.1-.73-4.63-1.17s-3.07-1-4.58-1.53a19.41,19.41,0,0,1-2.12-.83c.08,0,3,1.32,1.19.49l-1.19-.54a75.91,75.91,0,0,1-8.62-4.74q-1.94-1.25-3.8-2.6c-.34-.25-.69-.55-1-.78.09.06,2.5,2,1,.74-.68-.55-1.35-1.1-2-1.67a68.14,68.14,0,0,1-6.87-6.83q-.74-.84-1.44-1.71c-.23-.28-.45-.59-.7-.87,2,2.21.94,1.24.49.63-1.26-1.72-2.5-3.44-3.68-5.21-2.14-3.21-4.11-6.52-6-9.89-3.86-7-7.19-14.32-10.37-21.67-6.35-14.67-12.15-29.63-20.32-43.41-2.13-3.59-4.38-7.11-6.51-10.7-1-1.67-1.95-3.36-2.85-5.07-.45-.86-.89-1.72-1.31-2.59-.24-.5-.48-1-.71-1.5-.45-1-.39-2.28.12.33-.35-1.8-1.33-3.61-1.83-5.4s-.86-3.72-1.21-5.6c-.3-1.63.28,2.74.15,1.09,0-.37-.08-.74-.11-1.12-.09-1-.14-2-.17-3a51.18,51.18,0,0,1,.15-5.54c.06-.86.19-1.71.26-2.57-.34,4-.05.61.13-.33.35-1.83.79-3.65,1.3-5.44s1-3.37,1.64-5c.31-.83.7-1.65,1-2.49-1.12,3.55,0,0,.44-.9a119.33,119.33,0,0,1,12.15-20.09c.64-.87,1.36-1.71,2-2.61,0,0-1.56,2-.7.91.34-.42.67-.86,1-1.28,1.28-1.6,2.58-3.19,3.9-4.75,2.63-3.1,5.34-6.14,8.1-9.12s5.45-5.78,8.24-8.61c1.31-1.31,2.62-2.62,4-3.88.67-.63,1.36-1.25,2.06-1.85.4-.35.8-.69,1.21-1,.8-.67,2.09-1-.37.26,1.59-.82,3-2.08,4.58-2.94.44-.23,3.24-1.55,1.3-.69-1.68.74-.43.18-.06.06.62-.19,1.23-.41,1.86-.58s1.16-.22,1.71-.4c1.28-.41-.94.11-1.1.09a27.34,27.34,0,0,0,3.59-.22c1.06,0,2.12,0,3.17.1l1.36.1c.16,0,3.11.38,1.07.1s1.46.25,2,.33c1.05.18,2.1.38,3.14.57l7.32,1.35q6.88,1.28,13.79,2.46c19,3.22,38.2,5.91,57.48,6.1a188.91,188.91,0,0,0,56-7.82c16.89-5,33.22-11.83,50.32-16.19,3.84-1,7.71-1.84,11.62-2.49l2.54-.39c1.63-.26-2.77.34-1.14.15l1.1-.13q2.94-.35,5.88-.52a99.18,99.18,0,0,1,11-.09q2.55.12,5.1.39l1.08.13c1.64.16-2.78-.42-1.16-.16.95.15,1.91.29,2.85.47a69.8,69.8,0,0,1,10.38,2.72c.79.27,1.56.57,2.33.86,2,.74-2.59-1.17,0,0,1.71.78,3.39,1.64,5,2.59q2.14,1.25,4.17,2.69c2.42,1.72-1.62-1.38,0,0,.83.69,1.65,1.38,2.45,2.11q1.88,1.72,3.57,3.63c.56.63,1.1,1.29,1.64,1.93s.95,1.75-.63-.81c.25.4.57.78.85,1.17a65.17,65.17,0,0,1,5.35,9.41c.91,1.91-1-2.6,0,0,.32.8.61,1.59.89,2.39q1,2.77,1.71,5.6c.43,1.67.8,3.34,1.12,5,.18,1,.34,1.94.49,2.91.07.41.26,1.77,0-.2-.31-2.2,0,0,0,.54a87.12,87.12,0,0,1,.43,11.07c0,1.72-.13,3.43-.27,5.14-.09,1-.19,2.06-.31,3.1,0,.47-.31,2.42,0,.54s0,.17-.09.53c-.67,4.39-1.6,8.73-2.7,13a233.71,233.71,0,0,1-8.42,25.39c-2.87,7.46-5.89,14.85-9,22.23,1.52-3.65.17-.41-.16.36l-1,2.35q-1.11,2.51-2.26,5-2.29,5-4.82,9.84A145.28,145.28,0,0,1,796.05,646c-1.26,1.73,1.86-2.33,0,0-.51.64-1,1.28-1.56,1.91q-1.69,2-3.5,3.93a90.55,90.55,0,0,1-7.68,7.11c-1.2,1,2.14-1.6.88-.67l-.84.63q-1,.72-2,1.41-2.34,1.59-4.8,3-2.22,1.25-4.53,2.31l-1.35.61c-1.24.57,1.38-.57,1.28-.54-1.05.35-2.07.83-3.11,1.21-6.91,2.54-14.05,4.33-21.11,6.4-7.81,2.28-15.66,5-22.78,9a61.78,61.78,0,0,0-19.27,17.38c-9.11,12.16-13,27.61-16.8,42.08a171.89,171.89,0,0,1-6.07,20.12c-.17.42-.36.83-.51,1.26-.06.16,1.15-2.65.59-1.42-.33.73-.64,1.46-1,2.18-.77,1.65-1.59,3.28-2.46,4.87-1.63,3-3.56,5.68-5.46,8.48-.1.14,1.8-2.24.94-1.23-.28.33-.55.67-.83,1-.49.58-1,1.15-1.51,1.71a47.57,47.57,0,0,1-3.67,3.57c-.4.35-2.53,2-.7.62s-.28.16-.76.48c-1.3.86-2.66,1.58-4,2.31-2.44,1.32,2.33-.8.44-.15-.79.27-1.56.56-2.36.8s-1.41.38-2.13.53l-.93.19c-2.29.54,2.51-.22,1.11-.12a42.6,42.6,0,0,1-5.65.09c-.49,0-2.4-.34-.56,0s.23,0-.11,0c-1.32-.25-2.64-.51-4-.83-8.6-2.08-16.9-5.15-25.57-7a275.19,275.19,0,0,0-28.85-4.41c-17.71-1.89-35.52-2.41-53.26-3.8-4.48-.35-9-.75-13.4-1.24l-3.12-.36-1.78-.22c-.34,0-1.89-.26-.11,0,2,.27-1.4-.21-1.89-.28-1.33-.19-2.65-.4-4-.62a156,156,0,0,1-20.6-4.73q-4.94-1.51-9.73-3.36l-2.24-.88-1.28-.53c-1.26-.51,1.56.67,1.41.59-1.66-.79-3.36-1.48-5-2.27a124.7,124.7,0,0,1-17.66-10.25c-1.28-.9-2.51-1.89-3.79-2.77-.15-.1,2.24,1.77,1.21.92l-1-.83c-.69-.56-1.37-1.12-2-1.7a91.54,91.54,0,0,1-7.15-6.78c-1-1.1-2-2.22-3-3.38-.49-.57-1-1.16-1.44-1.74-1.25-1.51.7.93.76,1-.3-.43-.65-.85-1-1.28a72.9,72.9,0,0,1-5.15-8.06c-.71-1.3-1.39-2.62-2-4-.14-.29-.26-.58-.4-.86-.85-1.79.47,1.17.5,1.23a22,22,0,0,1-.93-2.37,62.28,62.28,0,0,1-2.65-9.26c-.18-.86-.34-1.71-.48-2.57-.05-.32-.09-.65-.15-1-.2-1.21.21,1.71.23,1.69a17.34,17.34,0,0,0-.28-2.9q-.14-1.83-.18-3.66c-.13-4.6.09-9.2.15-13.8.12-8.58-.46-17.39-3.33-25.55a79.27,79.27,0,0,0-8.85-17.77c-7.17-10.78-16.14-20.16-24.53-30-1.93-2.26-4-4.52-5.7-7,0,0,2,2.65.87,1.12-.17-.24-.35-.47-.53-.71l-1.21-1.65q-1.35-1.89-2.6-3.84a66.57,66.57,0,0,1-4.15-7.42c-.24-.5-1.24-2.8-.29-.54s0,0-.2-.58c-.49-1.29-.92-2.61-1.29-3.95a40.1,40.1,0,0,1-.91-4.08c-.05-.27-.08-.55-.14-.83-.3-1.47.31,3.16.23,1.65,0-.76-.15-1.51-.19-2.27a41.66,41.66,0,0,1,0-4.47c0-.63.11-1.26.15-1.89.14-2-.21,1.47-.21,1.46a6.11,6.11,0,0,1,.25-1.52,41.59,41.59,0,0,1,1-4.14c.2-.68.42-1.35.65-2s1.41-3.56.47-1.32.11-.17.37-.7.64-1.26,1-1.88q1.1-2,2.34-3.93c.84-1.3,1.78-2.53,2.66-3.8.75-1.09-1.13,1.48-1,1.29a12.1,12.1,0,0,1,.78-1c.53-.66,1.07-1.3,1.62-1.95,2.1-2.46,4.32-4.81,6.61-7.09,4.73-4.73,9.73-9.18,14.68-13.67s9.69-8.87,14.17-13.67a140.13,140.13,0,0,0,15.49-20.38c4.41-6.93,8.49-14.08,13.2-20.81.64-.91,1.3-1.81,1.95-2.71.2-.28,1.11-1.4,0-.06s0,0,.31-.38c1.2-1.49,2.44-2.95,3.73-4.36a86.65,86.65,0,0,1,7.48-7.24c.61-.52,1.23-1,1.85-1.54l1.07-.86c1-.84-1.3,1-1.17.91,1.51-1,2.94-2.16,4.46-3.17a100.28,100.28,0,0,1,8.81-5.25c1.41-.75,2.85-1.47,4.3-2.16.72-.34,1.45-.68,2.19-1l.94-.42c2.28-1-2.14.87-.76.31,3.23-1.3,6.49-2.53,9.8-3.61a172.09,172.09,0,0,1,20.63-5.22q5.13-1,10.31-1.71c.48-.07,1-.12,1.44-.2-.16,0-3.27.42-1.17.16l2.52-.31c1.81-.22,3.61-.41,5.42-.59,14.26-1.43,28.54-1.64,42.85-2.15,14.49-.52,29.41-1.7,43.3-6.08a77.44,77.44,0,0,0,19.32-8.82,65.45,65.45,0,0,0,17.2-16.6c1.79-2.48,2-6.81,1.26-9.64a12.74,12.74,0,0,0-5.75-7.47c-6.49-3.43-13-1.18-17.1,4.49Z" style="display: none;"></path><circle id="main_logo_designers_0" class="main-logo-designers-dashed-circle" transform="translate(440 485) scale(0.2)" cx="600" cy="600" r="214.19" style="display: none;"></circle><path id="main_logo_designers_1" class="main-logo-designers-hand" transform="translate(440 485) scale(0.2)" d="M909.12,297.63Q912,309,913.5,319a128.31,128.31,0,0,1,1.5,18.92,146.82,146.82,0,0,1-2.22,24.23,285.93,285.93,0,0,1-6.52,28.67l-40.57.28-3-15q-10.47,2.73-16.85,3.87a60,60,0,0,1-10.1,1.15,82.21,82.21,0,0,1-14.41-1.93,80.53,80.53,0,0,0-14.41-1.94q-7.17,0-20,2.65t-18.42,2.65a83.67,83.67,0,0,1-16.27-1.93,215.2,215.2,0,0,1-22.15-5.95l-15.91,17.63q-8.46,3-15.63,5.31t-13.76,4l-.86-.86q3.58-8.31,6.66-14.91t6.24-12.9q.43-.57,2.44-3.66c1.34-2.05,2.48-3.79,3.44-5.23L699,360.56q8-20.93,13.48-36t9.89-28.38Q740.54,278.56,755,268t26.66-15l17.06,11.18q15.35-17.91,22.15-23.94t10.68-6q4.15,0,8,4.37a13.78,13.78,0,0,1,3.79,9.1q0,4-4.51,10.25t-20.14,22A171.41,171.41,0,0,0,844,294.48a73.12,73.12,0,0,0,20.71,6.16l3.87-5.88ZM712.73,386.51a13.41,13.41,0,0,0-2.72-5.95,35.2,35.2,0,0,0-6.74-6.52,108.5,108.5,0,0,0-6.88,9.6,32.63,32.63,0,0,0-3.58,7.45l2.58,3.45q4.58-1.57,9-3.59A83.39,83.39,0,0,0,712.73,386.51Zm-5-26.95H708q4.74,0,8-4.8c2.15-3.21,3.22-7.24,3.22-12.12a11.89,11.89,0,0,0-.93-5,11.26,11.26,0,0,0-3.22-3.87l-11.18,25.51ZM792.44,270l-2.15-1.72q-8.76-7-10.33-7-4.73,0-20.85,12a221.94,221.94,0,0,0-31.76,29.39q-3.29,7.31-6.09,14.4t-4.94,14.12a11.56,11.56,0,0,1,5.37,3.88,11.75,11.75,0,0,1,2.22,6.3l-.28,1.58a58,58,0,0,1-2.73,8.17,50.85,50.85,0,0,1-4.3,8.17h2.58q3,0,7.17-4.44a40.81,40.81,0,0,0,7.17-11c.38-.76.86-1.91,1.43-3.44a73.8,73.8,0,0,1,9.18-17.49q5.73-7.46,28.81-32Q785.41,277.86,792.44,270Zm76.11,97.63q2.16-10.62,3-17.49a97,97,0,0,0,.86-11.61,89.41,89.41,0,0,0-1.22-14.05,139.41,139.41,0,0,0-3.8-16.49q-5-.29-10-.93a99.42,99.42,0,0,1-9.81-1.79q-8.89-4.16-17.56-9t-17.28-10.39l-17.06,18.49v2.44A39.39,39.39,0,0,1,792,324.58q-3.74,7.46-12,13.62a75.34,75.34,0,0,0,14.34-1.94,80.21,80.21,0,0,0,14.19-4.8,24,24,0,0,1-3.94,7.1,22.23,22.23,0,0,1-6.24,5.23h-2.15c-1.14,0-3.82-.05-8-.14s-7.84-.15-10.9-.15q-19.92,0-32.68,5.38T731.8,361.71a7.31,7.31,0,0,0,3.87,6.52q3.87,2.37,14.33,4.09a12.48,12.48,0,0,0,3.16-3.95,9.89,9.89,0,0,0,1-4.37,24.56,24.56,0,0,0-.72-5.3c-.47-2.1-1.24-4.73-2.29-7.89a13,13,0,0,1,6.09,4.73,14.18,14.18,0,0,1,1.8,7.6,11.74,11.74,0,0,1-1.3,5.23,16.45,16.45,0,0,1-3.58,4.81,65.7,65.7,0,0,0,8.46,2.15,44.48,44.48,0,0,0,7.88.71q7,0,19.28-3.65c8.18-2.44,14.07-3.66,17.71-3.66q4,0,13.9,2.22a75.68,75.68,0,0,0,15.77,2.23,73.13,73.13,0,0,0,12.33-1.37Q857.08,370.46,868.55,367.59Zm-79.27-57.34q-5.6,6.74-11.54,13.47t-12.11,13.62l1.43.29h1.44q8.44,0,14.33-7.6T789.28,310.25Zm109.23,72.24a137,137,0,0,0,4.66-20,128.2,128.2,0,0,0,1.51-19.57,118.65,118.65,0,0,0-1.51-18.78,113.51,113.51,0,0,0-4.66-18.78l-23.5-.28q2,10.74,2.93,18.84a127.32,127.32,0,0,1,.94,14.27,111.6,111.6,0,0,1-2,19.57q-2,11.1-6.17,26.16Z" style="display: none;"></path><path fill="#fddd3f" id="main_logo_tech_0" transform="translate(440 485) scale(0.2)" d="M658.49,497a45.32,45.32,0,0,0-24.7,7.46l-54.06-54.53a44.15,44.15,0,0,0,7.45-24.7,45.21,45.21,0,1,0-83,24.7L449.69,504a44.15,44.15,0,0,0-24.7-7.46A45.47,45.47,0,1,0,462.74,517L516.81,463a44.15,44.15,0,0,0,24.7,7.45,45.32,45.32,0,0,0,24.7-7.45L620.27,517a44.15,44.15,0,0,0-7.45,24.7,45.21,45.21,0,1,0,90.41,0A44.45,44.45,0,0,0,658.49,497Z" style="display: none;"></path><path fill="#fddd3f" id="main_logo_tech_1" transform="translate(440 485) scale(0.2)" d="M775,613.52a45.07,45.07,0,0,0-37.75,69.91L682.73,737a44.15,44.15,0,0,0-24.7-7.45A45.32,45.32,0,0,0,633.32,737L579.73,683a44.15,44.15,0,0,0,7.45-24.7A45.45,45.45,0,1,0,566.68,696l54.06,54.06a44.15,44.15,0,0,0-7.46,24.7,45.21,45.21,0,1,0,83-24.7L750.31,696a44.15,44.15,0,0,0,24.7,7.46,45.25,45.25,0,0,0,45.21-45.21C819.75,633.56,799.71,613.52,775,613.52Z" style="display: none;"></path><path fill="#fddd3f" id="main_logo_tech_2" transform="translate(440 485) scale(0.2)" d="M542,730a45.33,45.33,0,0,0-24.71,7.46L463.21,683a44.15,44.15,0,0,0,7.46-24.7,45.3,45.3,0,0,0-7.46-24.7l54.06-54.07A44.16,44.16,0,0,0,542,587a45.44,45.44,0,1,0-37.76-20.51l-54.53,54.07a44.15,44.15,0,0,0-24.7-7.46,45.21,45.21,0,1,0,24.7,83l54.07,54.06a44.15,44.15,0,0,0-7.46,24.7,45.21,45.21,0,0,0,90.42,0A44.75,44.75,0,0,0,542,730Z" style="display: none;"></path><path fill="#fddd3f" id="main_logo_tech_3" transform="translate(440 485) scale(0.2)" d="M775,497a45.3,45.3,0,0,0-24.7,7.46l-54.07-54.53a44.15,44.15,0,0,0,7.46-24.7A45.44,45.44,0,1,0,683.19,463L737.26,517a44.15,44.15,0,0,0-7.46,24.7,45.3,45.3,0,0,0,7.46,24.7l-54.53,54.07a44.15,44.15,0,0,0-24.7-7.46,45.44,45.44,0,1,0,37.75,20.51l54.06-54.07a44.15,44.15,0,0,0,24.7,7.46,45.25,45.25,0,0,0,45.21-45.21A44.45,44.45,0,0,0,775,497Z" style="display: none;"></path><path fill="#231f20" d="M714.09,564.88v70.24H696.73l-61.11-58.7v58.7h-12V564.88h17.36l61.11,58.7v-58.7Z"></path><path fill="#231f20" d="M803.78,618.46H753.41l-9.93,16.66H730.13l41.64-70.24h13.65l41.64,70.24H813.72Zm-5.92-10L778.6,575.92l-19.27,32.51Z"></path><path fill="#231f20" d="M928.19,600c0,23.88-16,35.12-34.91,35.12H843.11V564.88h50.17C912.24,564.88,928.19,576.12,928.19,600Zm-12,0c0-20.07-9.23-25.08-28.89-25.08H855.15v50.16h32.11C906.92,625.08,916.15,620.07,916.15,600Z"></path><path fill="#231f20" d="M959.29,574.92V595h62.21v10H959.29v20.06h62.21v10H947.25V564.88h74.25v10Z"></path><path d="M464.72,665.68v2.72H452v7.72h11.15v2.72H452V690h-3.23V665.68Z"></path><path d="M502.09,665.68,511.57,690H508l-2.65-7.31H495.08L492.36,690h-3.29l9.45-24.28Zm2.24,14.25-4-11.32h-.07l-4.12,11.32Z"></path><path d="M551.61,669a6.8,6.8,0,0,0-4.13-1.18,9.66,9.66,0,0,0-2,.21,5.2,5.2,0,0,0-1.75.68A3.46,3.46,0,0,0,542.5,670a3.91,3.91,0,0,0-.46,2,2.53,2.53,0,0,0,.66,1.82,5,5,0,0,0,1.77,1.14,15.15,15.15,0,0,0,2.5.73c.93.19,1.87.4,2.84.63s1.91.49,2.84.8a9.27,9.27,0,0,1,2.5,1.24,5.67,5.67,0,0,1,2.43,5,6.11,6.11,0,0,1-.87,3.32,7.12,7.12,0,0,1-2.23,2.24,9.57,9.57,0,0,1-3,1.26,14.79,14.79,0,0,1-3.35.39,14.23,14.23,0,0,1-3.86-.51,9.3,9.3,0,0,1-3.19-1.55,7.25,7.25,0,0,1-2.18-2.65,8.54,8.54,0,0,1-.8-3.82h3.06a5.41,5.41,0,0,0,.6,2.63,5.2,5.2,0,0,0,1.56,1.82,6.44,6.44,0,0,0,2.26,1.05,10.25,10.25,0,0,0,2.65.35,11.79,11.79,0,0,0,2.2-.21,6.61,6.61,0,0,0,2-.7,3.75,3.75,0,0,0,2-3.51,3,3,0,0,0-.67-2,4.81,4.81,0,0,0-1.76-1.28,13.35,13.35,0,0,0-2.5-.8l-2.84-.63c-1-.21-1.91-.46-2.84-.75a10,10,0,0,1-2.5-1.12,5.26,5.26,0,0,1-1.77-1.8,5.33,5.33,0,0,1-.66-2.77,6.29,6.29,0,0,1,2.74-5.39,8.67,8.67,0,0,1,2.82-1.29,12.53,12.53,0,0,1,3.24-.43,13.13,13.13,0,0,1,3.47.44,7.89,7.89,0,0,1,2.81,1.4,6.63,6.63,0,0,1,1.9,2.4,8.52,8.52,0,0,1,.77,3.45H553.5A5,5,0,0,0,551.61,669Z"></path><path d="M590.22,665.68v10.44H603V665.68h3.23V690H603V678.84H590.22V690H587V665.68Z"></path><path d="M640.4,665.68V690h-3.23V665.68Z"></path><path d="M670.71,673A12.16,12.16,0,0,1,672.9,669a10.71,10.71,0,0,1,3.64-2.82,12.63,12.63,0,0,1,10.13,0,10.62,10.62,0,0,1,3.64,2.82A11.81,11.81,0,0,1,692.5,673a15.81,15.81,0,0,1,0,9.56,11.81,11.81,0,0,1-2.19,4.06,10.45,10.45,0,0,1-3.64,2.8,12.85,12.85,0,0,1-10.13,0,10.54,10.54,0,0,1-3.64-2.8,12.16,12.16,0,0,1-2.19-4.06,16,16,0,0,1,0-9.56Zm3,8.4a9.64,9.64,0,0,0,1.49,3.21,7.56,7.56,0,0,0,2.62,2.3,8.78,8.78,0,0,0,7.62,0,7.62,7.62,0,0,0,2.61-2.3,9.86,9.86,0,0,0,1.5-3.21,13.89,13.89,0,0,0,0-7.24A9.86,9.86,0,0,0,688,671a7.62,7.62,0,0,0-2.61-2.3,8.78,8.78,0,0,0-7.62,0,7.56,7.56,0,0,0-2.62,2.3,9.64,9.64,0,0,0-1.49,3.21,13.89,13.89,0,0,0,0,7.24Z"></path><path d="M726.08,665.68l12.78,19.69h.07V665.68H742V690h-3.53l-12.69-19.49h-.06V690h-3.06V665.68Z"></path></svg>